<?xml version="1.0" encoding="UTF-8"?>
<svg id="Layer_1" data-name="Layer 1" xmlns="http://www.w3.org/2000/svg" viewBox="0 0 73.33 75.52">
  <defs>
    <style>
      .cls-1 {
        fill: #000;
        stroke-width: 0px;
      }
    </style>
  </defs>
  <path class="cls-1" d="M2.93,69c-.6,0-1,.03-1.39,0-.94-.07-1.45-.6-1.52-1.53-.03-.32-.01-.64-.01-.96,0-15.97-.01-31.95.03-47.92,0-.94.29-1.98.76-2.8C3.58,10.94,6.48,6.16,9.28,1.33,9.83.39,10.47,0,11.57,0,28.3.03,45.03.03,61.76,0c1.15,0,1.81.43,2.38,1.4,2.81,4.83,5.7,9.61,8.49,14.45.41.72.67,1.64.67,2.47.04,15.81.03,31.63.03,47.44q0,2.88-2.91,3.4c0,1.48,0,2.99,0,4.49,0,1.41-.45,1.86-1.86,1.86-21.24,0-42.48,0-63.72,0-1.47,0-1.89-.43-1.9-1.96-.01-1.47,0-2.94,0-4.56ZM3.39,66.06h66.47c-.03-.2-.02-.33-.07-.43-2.65-5.94-5.3-11.88-7.99-17.8-.14-.31-.71-.61-1.09-.61-3.19-.05-6.39,0-9.58-.05-.88-.01-1.07.32-1.06,1.12.04,2.12-.02,4.23.03,6.35.02,1-.33,1.63-1.23,2.1-3.68,1.92-7.35,3.86-10.98,5.86-.93.51-1.68.44-2.57-.02-3.15-1.64-6.33-3.21-9.49-4.84-3.84-1.99-3.24-.99-3.29-5.36-.02-1.7,0-3.4,0-5.19-3.5,0-6.81-.03-10.12.04-.35,0-.82.54-1,.93-1.83,3.99-3.61,8-5.4,12.01-.86,1.91-1.71,3.83-2.62,5.88ZM34.91,59.14c0-4.23.02-8.18-.02-12.13,0-.96.3-1.59,1.17-2.01,1-.49,1.97-1.05,2.96-1.58,2.23-1.2,4.47-2.41,6.89-3.72-1.45-.69-2.67-1.26-3.89-1.86-1.2-.59-1.57-1.26-1.17-2.11.4-.85,1.19-1.03,2.35-.49,1.84.86,3.66,1.78,5.52,2.59,1.03.45,1.42,1.14,1.37,2.24-.06,1.38-.01,2.77-.01,4.16h10.86v-25.29h-19.57c0,.72-.08,1.36.01,1.98.32,2.09-.35,3.74-2.07,4.97-1.28.91-1.79,2.11-1.59,3.7.13,1.02-.03,2.08.04,3.11.08,1.17-.41,1.83-1.45,2.32-3.36,1.58-6.69,3.21-10,4.88-.41.2-.89.77-.89,1.18-.07,4.15-.05,8.3-.02,12.46,0,.34.2.84.46.98,2.92,1.53,5.87,3.01,9.04,4.62ZM12.44,18.92v25.34h10.1c0-1.35.07-2.63-.02-3.89-.1-1.35.43-2.11,1.66-2.67,3.34-1.53,6.61-3.2,9.92-4.79.58-.28.77-.61.84-1.26.3-2.77-.14-5.2-2.69-6.83-.03-.02-.07-.05-.09-.08-.29-.7-.75-1.38-.83-2.11-.14-1.21-.04-2.44-.04-3.7H12.44ZM61,2.96H12.42v6.39h14.49c0-.64-.02-1.2,0-1.75.06-1.32.52-1.78,1.86-1.78,5.03-.01,10.06,0,15.1,0,1.39,0,1.83.48,1.85,1.89.01.54,0,1.09,0,1.64h15.27V2.96ZM2.91,59.41c.07.03.14.05.22.08.14-.28.29-.55.42-.83,1.84-4.11,3.7-8.22,5.51-12.35.26-.6.41-1.3.41-1.95.03-8.06.02-16.13.02-24.19,0-.39-.03-.77-.05-1.18H2.91v40.42ZM5.85,72.59h61.64v-3.51H5.85v3.51ZM70.16,59.41c.08,0,.16-.02.24-.02V18.95h-6.41c-.03.32-.08.59-.08.86,0,8.34,0,16.68,0,25.02,0,.35.06.72.2,1.04,2,4.52,4.03,9.03,6.05,13.54ZM47.22,42.26c-3.18,1.71-6.12,3.27-9.03,4.9-.26.15-.4.73-.41,1.11-.03,3.43-.02,6.85-.02,10.28,0,.21.05.43.1.81,3.04-1.63,5.95-3.18,8.84-4.76.25-.14.49-.55.5-.84.03-3.74.02-7.48.02-11.5ZM29.78,8.73c0,2.28-.03,4.46.04,6.64,0,.23.64.61.98.61,2.47.05,4.94.03,7.41.03,1.5,0,3.01,0,4.58,0v-7.29h-13.01ZM45.73,12.38c0,.86.06,1.65-.02,2.43-.09.96.27,1.23,1.21,1.22,4.34-.04,8.68-.02,13.02-.02.34,0,.69-.05,1.01-.08v-3.55h-15.23ZM12.41,12.38v3.64c.5,0,.93,0,1.35,0,3.55,0,7.09,0,10.64,0,2.55,0,2.51,0,2.52-2.52,0-.93-.27-1.23-1.22-1.22-4.06.05-8.13.02-12.19.02-.35,0-.69.05-1.1.08ZM38.4,18.98h-4.16c-.37,2.38-.3,4.48,2.06,5.65,2.46-1.21,2.47-3.33,2.09-5.65ZM9.48,15.92c0-1.03.01-1.94,0-2.85,0-.22-.13-.62-.19-.62-1.11.03-2.47-.27-3.25.27-.91.62-1.3,1.98-2.03,3.2h5.47ZM63.97,15.9h5.23c-1.38-3.46-2.24-4.03-5.23-3.44v3.44ZM9.42,7.26c-.08-.03-.16-.06-.24-.09-.39.69-.78,1.38-1.24,2.19h1.49v-2.11ZM64.19,7.15c-.07.03-.14.06-.22.09v2.14h1.5c-.48-.83-.89-1.53-1.29-2.23Z"/>
</svg>