<?xml version="1.0" encoding="UTF-8"?>
<svg id="Layer_1" data-name="Layer 1" xmlns="http://www.w3.org/2000/svg" viewBox="0 0 73.33 75.52">
  <defs>
    <style>
      .cls-1 {
        fill: #000;
        stroke-width: 0px;
      }
    </style>
  </defs>
  <path class="cls-1" d="M36.82,16.27c10.93,0,21.85,0,32.78,0,2.44,0,3.73,1.27,3.73,3.74,0,13.49,0,26.98,0,40.47,0,2.46-1.22,3.68-3.67,3.68-21.98,0-43.97,0-65.95,0-2.51,0-3.7-1.21-3.7-3.75,0-13.46,0-26.92,0-40.37,0-2.52,1.2-3.71,3.74-3.71,11.02,0,22.05,0,33.07,0,0-.02,0-.04,0-.06ZM68.42,62.31c-9.05-6.59-17.87-13.01-26.72-19.45-1.41,1.09-2.81,2.18-4.22,3.24-1.04.79-1.7.79-2.76,0-1.09-.82-2.21-1.63-3.22-2.55-.61-.56-.98-.46-1.57-.02-3.49,2.61-7,5.19-10.5,7.78-4.5,3.33-9,6.66-13.49,9.99l.03.22c20.73.26,41.45.53,62.46.8ZM36.1,42.72c9.7-7.53,19.38-15.04,29.09-22.58H7.92c0,.07,0,.14,0,.21,9.39,7.45,18.78,14.9,28.19,22.38ZM69.76,58.91V21.07c-8.43,6.54-16.76,13.02-25.17,19.54,8.43,6.13,16.75,12.17,25.17,18.3ZM27.86,40.69c-8.12-6.44-16.15-12.81-24.29-19.27v37.22c8.14-6.01,16.18-11.95,24.29-17.95Z"/>
</svg>