<?xml version="1.0" encoding="UTF-8"?>
<svg version="1.1" xmlns="http://www.w3.org/2000/svg" width="1297" height="1500">
<path d="M0 0 C1.06025391 0.00974854 2.12050781 0.01949707 3.21289062 0.02954102 C22.56436355 0.46759231 37.9489731 9.93289113 52.1875 22.4375 C53.16976562 23.23800781 54.15203125 24.03851562 55.1640625 24.86328125 C63.27363982 31.50288187 70.72091305 38.78253266 78.125 46.1875 C78.86961487 46.93075531 78.86961487 46.93075531 79.62927246 47.68902588 C84.79663576 52.85745814 89.86128775 58.07696018 94.62036133 63.62744141 C97.1798642 66.58368915 99.87963962 69.40615979 102.5625 72.25 C107.26579762 77.2709334 111.7093434 82.42089862 116.01171875 87.79296875 C118.317817 90.59589248 120.72901531 93.26753275 123.1875 95.9375 C127.60529859 100.74829294 131.75992838 105.7175781 135.859375 110.80029297 C137.93950893 113.36451689 140.04381557 115.90867623 142.14599609 118.45483398 C144.56613131 121.38650228 146.981059 124.32243692 149.39550781 127.25878906 C150.56072364 128.6754629 151.72669819 130.09151315 152.89355469 131.50683594 C159.31496735 139.30237806 165.57666301 147.18025909 171.59375 155.29272461 C175.4208361 160.4463581 179.35135228 165.51142223 183.3125 170.5625 C188.69860826 177.44872186 193.85779354 184.45239748 198.88623047 191.60205078 C200.80046243 194.30208753 202.75043903 196.97576024 204.69726562 199.65234375 C217.27512494 216.9602082 229.43508959 234.55945744 241.1875 252.4375 C242.04311523 253.7354248 242.04311523 253.7354248 242.91601562 255.05957031 C256.8445376 276.2066872 270.30858368 297.63454577 283.1875 319.4375 C283.73229004 320.35966309 284.27708008 321.28182617 284.83837891 322.23193359 C312.88965096 369.81591348 338.2519725 418.75066896 362.31233215 468.45291138 C365.47927361 474.99050474 368.6722375 481.51504534 371.875 488.03515625 C380.73427401 506.07685341 389.54181839 524.12419365 397.9296875 542.390625 C401.51394306 550.18248491 405.20661003 557.92208786 408.89266968 565.66616821 C416.50372863 581.66362814 423.94746964 597.72753918 431.22721863 613.87825012 C433.71072147 619.38742979 436.20914704 624.8897293 438.7109375 630.390625 C463.51738412 684.96673254 487.4331023 739.97294933 510.1875 795.4375 C510.62301178 796.49871063 510.62301178 796.49871063 511.06732178 797.58135986 C528.03780725 838.96210053 544.47213316 880.56383149 560.1875 922.4375 C560.52183044 923.32747681 560.85616089 924.21745361 561.20062256 925.13439941 C645.32551241 1149.18984879 645.32551241 1149.18984879 658.1875 1259.4375 C658.20796387 1260.10620117 658.22842773 1260.77490234 658.24951172 1261.46386719 C659.88547779 1320.22344185 639.59554483 1367.85219521 601.1875 1411.4375 C600.48882813 1412.24703125 599.79015625 1413.0565625 599.0703125 1413.890625 C588.76521216 1425.63455067 577.6582146 1436.99786187 565.1875 1446.4375 C564.64867187 1446.85273926 564.10984375 1447.26797852 563.5546875 1447.69580078 C509.70431089 1489.09478706 444.06969656 1502.11206648 377.44677734 1493.98095703 C337.68791244 1488.496794 298.78803784 1476.81560781 262.1875 1460.4375 C261.09163574 1459.95055664 259.99577148 1459.46361328 258.86669922 1458.96191406 C215.17482062 1439.44066598 174.03962936 1414.79739133 136.75 1384.75 C136.16025391 1384.27602783 135.57050781 1383.80205566 134.96289062 1383.3137207 C123.59533147 1374.00629664 113.25463466 1363.62080615 102.9375 1353.1875 C93.16285526 1343.1930332 93.16285526 1343.1930332 82.79589844 1333.82714844 C81.00239256 1332.27756807 79.3463018 1330.62973349 77.6875 1328.9375 C75.27684521 1326.48301512 72.79397609 1324.1830794 70.1875 1321.9375 C67.58102391 1319.6919206 65.09815479 1317.39198488 62.6875 1314.9375 C59.78170927 1311.98620472 56.74375312 1309.2695836 53.59765625 1306.578125 C51.702978 1304.89533136 49.87600014 1303.18546051 48.05859375 1301.421875 C36.16837937 1289.9444683 24.04628635 1279.59211332 6.875 1279 C-0.33295573 1279.16561736 -6.23472703 1280.5385094 -12.8125 1283.4375 C-13.64394531 1283.80359375 -14.47539063 1284.1696875 -15.33203125 1284.546875 C-33.684388 1293.68076684 -50.36313448 1308.33680988 -62.8125 1324.4375 C-63.91870617 1325.85200427 -65.02552193 1327.26603195 -66.1328125 1328.6796875 C-70.66015799 1334.47231732 -75.17968589 1340.27092766 -79.6171875 1346.1328125 C-90.61017722 1360.64322313 -102.99123938 1374.07623799 -117.27734375 1385.40234375 C-119.64070621 1387.2995885 -121.88590486 1389.27133592 -124.125 1391.3125 C-129.52071524 1396.15333672 -135.21582899 1400.58703975 -140.95751953 1405.00634766 C-142.14949733 1405.92598096 -143.33826571 1406.84979757 -144.52294922 1407.77880859 C-215.05194017 1463.08249356 -303.05666481 1500.92778194 -393.51660156 1500.75317383 C-396.91243944 1500.75002325 -400.30739445 1500.77354181 -403.703125 1500.79882812 C-423.10560997 1500.85530744 -442.40233425 1499.28370794 -461.375 1495.0625 C-462.35984375 1494.84899902 -463.3446875 1494.63549805 -464.359375 1494.41552734 C-498.5716417 1486.79603069 -529.77107063 1469.49651898 -556.8125 1447.4375 C-557.646604 1446.7578418 -557.646604 1446.7578418 -558.49755859 1446.06445312 C-571.47856925 1435.39873685 -583.60666864 1423.82249299 -593.8125 1410.4375 C-594.24127441 1409.87981934 -594.67004883 1409.32213867 -595.11181641 1408.74755859 C-624.86686487 1369.87283582 -639.28824872 1324.67437085 -639.1875 1275.875 C-639.18662384 1274.83770752 -639.18574768 1273.80041504 -639.18484497 1272.73168945 C-639.13645456 1255.3111407 -638.13606464 1238.57843183 -634.8125 1221.4375 C-634.48233887 1219.72119385 -634.48233887 1219.72119385 -634.14550781 1217.97021484 C-622.93835928 1161.61404464 -605.15408376 1106.15445917 -587.8125 1051.4375 C-587.45500671 1050.30916748 -587.09751343 1049.18083496 -586.72918701 1048.01831055 C-557.57746283 956.10302842 -524.68140454 865.47009268 -481.8125 758.4375 C-481.45325439 757.54969849 -481.09400879 756.66189697 -480.72387695 755.74719238 C-468.67447337 725.97227284 -456.38340871 696.3069807 -443.7989502 666.75421143 C-442.89747405 664.63706441 -441.99690155 662.51953604 -441.09667969 660.40185547 C-437.69364269 652.40288661 -434.26494894 644.41526121 -430.8125 636.4375 C-430.51831177 635.75757996 -430.22412354 635.07765991 -429.92102051 634.37713623 C-413.29242335 595.96198742 -396.35328968 557.68439177 -378.83795166 519.66485596 C-377.77397591 517.35382286 -376.71171211 515.04200948 -375.64990234 512.72998047 C-361.93336033 482.86508074 -348.03155577 453.08979736 -333.68945312 423.51953125 C-331.14743257 418.27752799 -328.61283078 413.03338551 -326.1328125 407.76171875 C-314.69320656 383.47235252 -302.34865253 359.55813521 -289.29296875 336.09814453 C-287.69941044 333.23425955 -286.11555469 330.36510706 -284.53125 327.49609375 C-262.99963852 288.64185086 -239.89945013 250.38266547 -214.52685547 213.90527344 C-212.65799918 211.21509979 -210.79950704 208.51792494 -208.94140625 205.8203125 C-200.45273268 193.52357833 -191.75654466 181.40660766 -182.8125 169.4375 C-181.97252286 168.308693 -181.13266693 167.17979578 -180.29296875 166.05078125 C-174.87320524 158.78962699 -169.36531035 151.59715223 -163.8125 144.4375 C-163.38743164 143.88868164 -162.96236328 143.33986328 -162.52441406 142.77441406 C-151.76929467 128.91172066 -140.57607663 115.40274659 -129.19091797 102.05419922 C-127.73054713 100.34138028 -126.27356922 98.62570469 -124.81640625 96.91015625 C-119.3254946 90.46019453 -113.75405137 84.10957021 -108.02734375 77.8671875 C-106.17243183 75.83234585 -104.35821202 73.77428753 -102.5625 71.6875 C-94.0542027 61.93263821 -85.07142864 52.60463195 -75.9375 43.4375 C-74.90423584 42.39734741 -74.90423584 42.39734741 -73.85009766 41.33618164 C-54.13142978 21.67680733 -29.26680584 -0.30116608 0 0 Z M-48.75 75.99609375 C-51.40598763 79.1400185 -53.98825552 82.33360751 -56.53515625 85.56640625 C-58.25567981 87.73550542 -59.99108212 89.8864427 -61.74609375 92.02734375 C-68.49614062 100.26308141 -75.0616991 108.61241555 -81.5 117.09375 C-84.29973718 120.77796473 -87.14088348 124.42789951 -89.99438477 128.07055664 C-97.20059676 137.27298256 -104.17524478 146.62757631 -111.07128906 156.06396484 C-112.78520065 158.40028683 -114.51132247 160.72699868 -116.2421875 163.05078125 C-124.66845824 174.37799743 -132.77280279 185.90723471 -140.79345703 197.52441406 C-142.75558793 200.35538696 -144.73222116 203.17553735 -146.71484375 205.9921875 C-163.1216915 229.3348627 -178.53553263 253.34462194 -193.8125 277.4375 C-194.72346436 278.87125977 -194.72346436 278.87125977 -195.65283203 280.33398438 C-205.55761305 295.94989349 -215.03780552 311.80321997 -224.43275452 327.72859192 C-227.07967563 332.21092606 -229.75330135 336.67662784 -232.4375 341.13671875 C-236.33449276 347.6172412 -240.16212172 354.13521651 -243.9375 360.6875 C-244.57220215 361.78884277 -245.2069043 362.89018555 -245.86083984 364.02490234 C-256.93526067 383.30219385 -267.62637577 402.79392379 -278.16015625 422.37109375 C-279.84079838 425.4900159 -281.52947004 428.60449919 -283.21875 431.71875 C-303.22466427 468.70931093 -322.38908611 506.27160212 -340.33447266 544.30615234 C-341.67289697 547.14173712 -343.01645259 549.97484599 -344.36094666 552.80755615 C-353.11925283 571.2763615 -361.53577231 589.88269275 -369.78237915 608.58503723 C-372.12010809 613.88285546 -374.48012352 619.17032007 -376.8515625 624.453125 C-402.4157415 681.45135713 -425.60045791 739.61775671 -446.37332153 798.52896118 C-450.62646505 810.57365965 -455.12481738 822.48061731 -459.9375 834.3125 C-491.38606759 911.77714841 -509.63723276 992.06483196 -540.0625 1183.625 C-540.10397156 1184.31834442 -540.14544312 1185.01168884 -540.18817139 1185.7260437 C-542.39131217 1223.77153831 -539.68685642 1263.29814793 -523.8125 1298.4375 C-523.39194336 1299.38302734 -523.39194336 1299.38302734 -522.96289062 1300.34765625 C-515.60886959 1316.67910252 -505.28718559 1330.65855379 -492.8125 1343.4375 C-492.11125 1344.200625 -491.41 1344.96375 -490.6875 1345.75 C-459.01754348 1379.33934782 -407.4055511 1395.65530336 -362.25505066 1397.54450989 C-359.58634898 1397.60067958 -356.91926 1397.62781276 -354.25 1397.640625 C-353.26883209 1397.64763931 -352.28766418 1397.65465363 -351.27676392 1397.66188049 C-348.12196215 1397.67930905 -344.96734817 1397.6857343 -341.8125 1397.6875 C-340.73425964 1397.68817474 -339.65601929 1397.68884949 -338.54510498 1397.68954468 C-322.42187811 1397.67350271 -306.73454338 1397.18545327 -290.8125 1394.4375 C-289.76658691 1394.26589355 -288.72067383 1394.09428711 -287.64306641 1393.91748047 C-236.29511786 1385.36331128 -186.45657204 1365.79965226 -146.8125 1331.4375 C-145.82765625 1330.59832031 -144.8428125 1329.75914063 -143.828125 1328.89453125 C-132.4494948 1318.99739943 -121.56970497 1307.15219979 -119.25 1291.6875 C-120.77738153 1282.86262893 -125.68361913 1277.59268244 -132.8125 1272.4375 C-138.01826567 1269.18846826 -143.38797606 1266.30175399 -148.8125 1263.4375 C-149.67214355 1262.97827148 -150.53178711 1262.51904297 -151.41748047 1262.04589844 C-169.29532529 1252.50211054 -187.32352204 1243.31503314 -206.1875 1235.875 C-221.0102876 1229.97341955 -233.88101602 1222.08122016 -246.10644531 1211.86279297 C-247.83810264 1210.41611073 -249.58632074 1208.99128719 -251.3359375 1207.56640625 C-273.02113023 1189.68673466 -289.59243743 1167.11495013 -302.8125 1142.4375 C-298.98606988 1143.8377516 -295.74542869 1145.6253922 -292.3125 1147.8125 C-223.9718788 1190.61837895 -146.7335206 1217.09338155 -66.9375 1227.6875 C-65.79982178 1227.83880371 -64.66214355 1227.99010742 -63.48999023 1228.14599609 C-41.35714434 1230.89262284 -19.26533828 1231.81745976 3.02622986 1231.75555801 C5.09923378 1231.74989973 7.17222946 1231.74709032 9.24523926 1231.74447632 C30.68353956 1231.70522874 51.90049743 1231.1075094 73.1875 1228.4375 C73.89835754 1228.35028687 74.60921509 1228.26307373 75.34161377 1228.17321777 C161.82057177 1217.53384317 243.68279211 1189.91543893 318.1875 1144.4375 C315.17644248 1157.68579528 305.15215369 1169.77617448 297.1875 1180.4375 C296.48238281 1181.39011719 295.77726563 1182.34273437 295.05078125 1183.32421875 C279.6141507 1203.12799035 260.47855038 1219.03020096 238.1875 1230.4375 C237.45595703 1230.81551758 236.72441406 1231.19353516 235.97070312 1231.58300781 C212.29135041 1243.68422333 187.0995866 1252.85117574 161.77246094 1260.83569336 C160.77338966 1261.15586929 160.77338966 1261.15586929 159.75413513 1261.48251343 C157.96318559 1262.05568211 156.16884683 1262.61823074 154.37426758 1263.17993164 C149.78493154 1264.99098427 146.19736948 1267.06928974 143.25 1271.0625 C140.79651297 1278.85592939 143.31717674 1286.07116347 146.5546875 1293.3046875 C157.48752478 1314.28108822 176.50219355 1333.31131383 195.1875 1347.4375 C195.87183105 1347.96053711 196.55616211 1348.48357422 197.26123047 1349.02246094 C207.53109232 1356.84982004 217.87328564 1364.20360993 229.1875 1370.4375 C230.00637695 1370.89334473 230.82525391 1371.34918945 231.66894531 1371.81884766 C254.12909763 1384.22630348 277.26265057 1393.3413171 302.1875 1399.4375 C303.66186523 1399.79884033 303.66186523 1399.79884033 305.16601562 1400.16748047 C367.60402651 1415.09335533 434.26876186 1408.70519324 489.90527344 1375.59350586 C502.78103893 1367.62834156 514.28612785 1357.90064311 525.1875 1347.4375 C526.03078857 1346.63505859 526.03078857 1346.63505859 526.89111328 1345.81640625 C535.48111599 1337.60338682 543.23498586 1329.08178967 550.1875 1319.4375 C550.66396973 1318.77830566 551.14043945 1318.11911133 551.63134766 1317.43994141 C568.17568724 1294.25606126 579.42099242 1269.03087315 586.1875 1241.4375 C586.50847656 1240.20128906 586.82945313 1238.96507812 587.16015625 1237.69140625 C592.05895656 1215.43034624 590.41373662 1190.42360224 585.1875 1168.4375 C584.98334473 1167.53370605 584.77918945 1166.62991211 584.56884766 1165.69873047 C576.32649652 1129.85670696 562.23757412 1095.08345947 549.30203247 1060.73202515 C525.65417126 997.88879052 503.61794566 934.48465165 482.6875 870.6875 C482.30716614 869.52824005 481.92683228 868.3689801 481.53497314 867.17459106 C477.2681053 854.14479642 473.13907938 841.09048873 469.25524902 827.94180298 C459.00126697 793.29861638 445.00149744 759.78766354 431.1875 726.4375 C430.9047522 725.75403503 430.62200439 725.07057007 430.33068848 724.36639404 C408.73738279 672.18854845 385.65092011 620.62914956 360.84718323 569.89759827 C358.044461 564.15943024 355.30074666 558.39411485 352.5625 552.625 C344.00143169 534.64902053 335.08382966 516.83882895 325.73828125 499.2578125 C323.28331516 494.63589854 320.87903952 489.98846062 318.47558594 485.33959961 C312.41716855 473.62920886 306.21588954 462.00896089 299.85205078 450.46191406 C298.35063815 447.7339147 296.85480453 445.00292572 295.36097717 442.27076721 C288.22999141 429.23299972 281.00672767 416.26594945 273.47045898 403.45654297 C269.71711301 397.0755903 266.02970766 390.66054274 262.37890625 384.22045898 C253.95253429 369.35776107 245.18946074 354.72350999 236.2479248 340.16583252 C234.8287911 337.85285859 233.41423153 335.53710238 231.99957275 333.22138977 C225.15127033 322.01414861 218.25084854 310.85192122 211.0625 299.859375 C208.88965966 296.53240559 206.75180833 293.18470517 204.625 289.828125 C194.46366318 273.80590861 183.91093441 258.08614476 173.1875 242.4375 C172.11174723 240.86213752 171.03619501 239.28663806 169.9609375 237.7109375 C150.4338364 209.14458485 129.99941577 181.20503034 108.953125 153.7421875 C107.42444371 151.74678493 105.89892691 149.74903354 104.375 147.75 C99.57326219 141.46314993 94.67478847 135.25915774 89.71777344 129.09448242 C86.79465974 125.45742204 83.90325282 121.79881093 81.0402832 118.11425781 C76.35687693 112.09285621 71.51790216 106.24151903 66.52514648 100.47412109 C63.54195952 97.02703331 60.61801802 93.5443879 57.75 90 C52.05682552 83.00493807 46.18196821 76.17542276 40.1875 69.4375 C39.40375 68.55449219 38.62 67.67148438 37.8125 66.76171875 C28.15062178 56.47821234 12.98895398 47.11578099 -1.453125 46.24609375 C-21.33717408 47.85920369 -36.30359885 61.79386101 -48.75 75.99609375 Z " fill="#FFFFFF" transform="translate(638.8125,-0.4375)"/>
<path d="M0 0 C0.79809082 0.13873535 1.59618164 0.2774707 2.41845703 0.42041016 C13.96680267 2.48340134 13.96680267 2.48340134 17 4 C15.49823658 7.99231167 13.61970891 11.67020043 11.625 15.4375 C7.20229912 24.0595214 3.62973583 33.16578368 4 43 C7.88847991 41.47269638 9.76365184 39.12557367 12.3125 35.875 C13.10914063 34.88242187 13.90578125 33.88984375 14.7265625 32.8671875 C16.04006732 31.21063675 17.34964823 29.55092573 18.6484375 27.8828125 C32.44163892 11.00889604 53.31722838 0.64377433 74.78564453 -1.81469727 C99.73047551 -3.90214233 124.5100432 -0.81192177 144.65625 15.09765625 C162.75562764 30.5529983 165.53443212 50.18291538 167.3357724 72.69486374 C168.24481001 85.00223379 168.26604746 97.279097 168.22705078 109.61352539 C168.22648484 112.16890458 168.22680678 114.72428409 168.22793579 117.27966309 C168.22838653 122.72279901 168.22283328 128.1658724 168.21146011 133.60899544 C168.19502849 141.47829236 168.18997932 149.34756626 168.18748413 157.21687847 C168.1831343 169.99217382 168.16989988 182.76744327 168.15087891 195.54272461 C168.13244915 207.93399938 168.11835064 220.32526701 168.10986328 232.71655273 C168.10932729 233.49138608 168.10879129 234.26621943 168.10823905 235.06453258 C168.10407887 241.12652433 168.10016549 247.18851623 168.09632993 253.25050819 C168.07754909 282.83369593 168.03729234 312.41681861 168 342 C129.06 342 90.12 342 50 342 C49.95101562 323.16550781 49.90203125 304.33101562 49.8515625 284.92578125 C49.8161804 272.99934452 49.7803153 261.07291218 49.7421875 249.14648438 C49.72218097 242.88045294 49.70229676 236.61442114 49.68261719 230.34838867 C49.68014575 229.5630975 49.67767431 228.77780634 49.67512798 227.96871847 C49.63546257 215.30854519 49.60269657 202.64836305 49.57250018 189.98816404 C49.54133146 176.98502205 49.50269908 163.9819175 49.45720994 150.97881764 C49.42939808 142.9621521 49.40733359 134.94551379 49.39273749 126.92881312 C49.38089967 120.77049485 49.35865257 114.61225318 49.33261681 108.45397949 C49.3235769 105.93579781 49.31785921 103.41760158 49.31578636 100.89940453 C50.69659978 79.600329 50.69659978 79.600329 43 61 C37.05921353 59.01973784 30.34492074 59.21835975 24.4375 61.1875 C20.05742931 64.44447564 18.65493938 68.32576039 17.85032654 73.60125732 C16.97934957 79.53018332 16.56722269 85.39364463 16.39477539 91.37988281 C16.35746591 92.54889759 16.32015642 93.71791237 16.28171635 94.92235184 C15.69735733 115.9700836 15.76546917 137.03640207 15.69667697 158.09043789 C15.67453782 164.57391565 15.64728819 171.05737208 15.62062073 177.54083252 C15.57666764 188.38984248 15.53577287 199.23885985 15.49731445 210.08789062 C15.45775141 221.24610247 15.41626786 232.40430455 15.37231445 243.5625 C15.36956495 244.26109178 15.36681544 244.95968356 15.36398262 245.67944479 C15.34003726 251.75931684 15.31594967 257.83918832 15.29184818 263.91905975 C15.18885672 289.94602072 15.09518119 315.97300659 15 342 C-23.61 342 -62.22 342 -102 342 C-102 230.46 -102 118.92 -102 4 C-68.36413895 -3.91432025 -34.17059892 -5.96116303 0 0 Z " fill="#FFFFFF" transform="translate(567,806)"/>
<path d="M0 0 C14.03952109 12.64291951 23.08663755 30.98172847 24.44335938 49.87084961 C24.54101866 52.88059915 24.56611547 55.87936685 24.55078125 58.890625 C24.54884766 60.4674707 24.54884766 60.4674707 24.546875 62.07617188 C24.45462334 69.51626863 23.64959258 75.95446936 21.23828125 83.015625 C-46.61916702 95.70426598 -46.61916702 95.70426598 -67.51171875 83.640625 C-71.75416318 80.52200691 -74.76144961 77.26968266 -75.76171875 72.015625 C-75.87294111 70.23124645 -75.93902832 68.44377521 -75.97265625 66.65625 C-76.00101563 65.62242187 -76.029375 64.58859375 -76.05859375 63.5234375 C-76.11029842 61.36735295 -76.15467938 59.21107919 -76.19140625 57.0546875 C-76.40120955 50.00879326 -76.77900422 43.67687175 -81.41015625 37.9921875 C-88.07622069 32.77395606 -93.22497498 31.13865614 -101.76171875 32.015625 C-106.4874204 33.67837188 -109.0757004 35.79473902 -111.76171875 40.015625 C-115.56835418 51.23160439 -115.40122454 66.44545295 -110.19921875 77.265625 C-92.78543311 96.91194726 -65.33251009 105.94142946 -41.87231445 116.27001953 C-24.78761362 123.84048577 -8.46354659 132.40298491 6.23828125 144.015625 C6.83125 144.44230469 7.42421875 144.86898437 8.03515625 145.30859375 C22.25410294 155.89635782 26.99951536 174.32184033 29.70703125 190.8828125 C30.01213285 193.60330175 30.15726455 196.27866942 30.23828125 199.015625 C30.25874512 199.67191895 30.27920898 200.32821289 30.30029297 201.00439453 C31.05085846 228.98622038 28.68065225 259.15286548 8.83984375 280.609375 C-12.7294772 301.59574133 -45.6927929 309.07925359 -74.9296875 309.21875 C-75.88579422 309.22445007 -76.84190094 309.23015015 -77.82698059 309.23602295 C-79.84647536 309.2454221 -81.86598512 309.25198656 -83.88549805 309.25585938 C-86.89596376 309.26545525 -89.90571277 309.29648184 -92.91601562 309.328125 C-126.97871498 309.51319618 -165.42758703 303.37204571 -191.76171875 280.015625 C-192.40882813 279.45101563 -193.0559375 278.88640625 -193.72265625 278.3046875 C-207.93524443 265.08511858 -213.07389377 243.54709652 -213.85571289 224.75653076 C-213.89213627 222.45689688 -213.90048757 220.15928452 -213.89453125 217.859375 C-213.89548798 217.03103149 -213.8964447 216.20268799 -213.89743042 215.34924316 C-213.89810515 213.61824466 -213.89630072 211.88724351 -213.89208984 210.15625 C-213.88667626 207.49473522 -213.89208661 204.833385 -213.8984375 202.171875 C-213.89777766 200.48437463 -213.89649847 198.79687436 -213.89453125 197.109375 C-213.89655548 196.31156616 -213.89857971 195.51375732 -213.90066528 194.69177246 C-213.87670665 189.1306129 -213.87670665 189.1306129 -212.76171875 188.015625 C-198.90112969 185.71435121 -184.44207397 185.79164825 -170.41998291 185.71707153 C-168.75991402 185.70793225 -167.099863 185.69400792 -165.43988037 185.67477417 C-148.6595871 185.50295575 -126.22123136 185.52579717 -112.76171875 197.015625 C-107.49485783 203.11409554 -108.18607147 210.33910109 -108.59814453 217.98632812 C-108.83989469 220.98547336 -109.31497297 223.92646336 -109.82421875 226.890625 C-110.76866276 232.40672552 -111.32790583 237.56448036 -109.76171875 243.015625 C-106.70988265 247.20100023 -103.79758727 248.95034512 -98.76171875 250.015625 C-92.37445934 250.68046985 -87.57267533 249.72072548 -81.76171875 247.015625 C-77.11264875 243.22347807 -76.0885475 237.08231194 -75.47753906 231.34912109 C-75.36082757 228.62635177 -75.34515978 225.92800004 -75.38671875 223.203125 C-75.40085815 221.7656189 -75.40085815 221.7656189 -75.4152832 220.29907227 C-75.5223334 207.49842321 -75.5223334 207.49842321 -81.0078125 196.3984375 C-86.03108881 192.05205658 -91.93648924 189.14346394 -97.76171875 186.015625 C-98.87740234 185.41548584 -98.87740234 185.41548584 -100.015625 184.80322266 C-110.05318943 179.43511005 -120.19050714 174.28068507 -130.40234375 169.25390625 C-201.6023283 134.16708485 -201.6023283 134.16708485 -211.92407227 105.38452148 C-221.4624908 77.04864878 -220.90487189 40.12465732 -207.63671875 13.015625 C-196.28054412 -6.30462014 -174.88560762 -16.32630602 -153.98828125 -21.92578125 C-105.9017757 -34.18248264 -39.736206 -33.20856769 0 0 Z " fill="#FFFFFF" transform="translate(567.76171875,463.984375)"/>
<path d="M0 0 C19.97126431 18.79378548 26.40322722 45.46028451 27.70703125 72.08203125 C27.90836501 80.74830275 27.8379508 89.41515708 27.70703125 98.08203125 C24.24995487 98.73471203 20.79117048 99.3778809 17.33203125 100.01953125 C15.88376953 100.29313477 15.88376953 100.29313477 14.40625 100.57226562 C2.56054962 102.75855261 -9.02166405 103.32115731 -21.04296875 103.33203125 C-21.81720184 103.33303833 -22.59143494 103.33404541 -23.38912964 103.33508301 C-42.6663246 103.31817864 -60.54587728 100.33223937 -79.29296875 96.08203125 C-79.34601418 95.11602745 -79.34601418 95.11602745 -79.40013123 94.13050842 C-79.77034269 87.397628 -80.14406286 80.66494869 -80.51977539 73.93237305 C-80.6593386 71.42330788 -80.79802205 68.91419362 -80.93579102 66.4050293 C-81.13453838 62.78811432 -81.33650083 59.17139063 -81.5390625 55.5546875 C-81.59952255 54.44182877 -81.6599826 53.32897003 -81.72227478 52.18238831 C-81.62898112 39.53125057 -81.62898112 39.53125057 -87.29296875 29.08203125 C-91.2714079 26.82399822 -94.77553714 26.69259749 -99.29296875 27.08203125 C-103.65604772 28.39095494 -105.69460133 29.14458897 -108.16796875 33.01953125 C-112.38033125 44.48651806 -111.44282089 57.31875825 -111.43823242 69.37451172 C-111.44123225 70.96783526 -111.44463664 72.56115808 -111.44841003 74.15447998 C-111.45716859 78.44384066 -111.45958462 82.73318134 -111.46022582 87.02255011 C-111.46094075 89.7114377 -111.46308333 92.40032034 -111.46572304 95.0892067 C-111.47494814 104.495184 -111.47906132 113.90114722 -111.47827148 123.30712891 C-111.47767083 132.03501959 -111.4882275 140.76284844 -111.50401515 149.49072349 C-111.51714262 157.01982309 -111.52245323 164.5489026 -111.52181607 172.07801354 C-111.5215627 176.55913039 -111.5243246 181.04019215 -111.53499413 185.52129745 C-111.54476384 189.73869698 -111.54469434 193.95598969 -111.53747749 198.17339325 C-111.53644272 199.70871006 -111.53872748 201.24403384 -111.54483795 202.77933884 C-111.91447066 223.42317381 -111.91447066 223.42317381 -104.29296875 242.08203125 C-100.65576661 245.39592653 -97.33006692 246.79080323 -92.37890625 247.1796875 C-87.47932468 246.95030634 -83.66243899 245.26643794 -79.98046875 242.08203125 C-76.03784714 235.07292617 -75.06947329 227.33825159 -74.16796875 219.45703125 C-74.07717041 218.69173096 -73.98637207 217.92643066 -73.89282227 217.13793945 C-73.47038237 213.21002544 -73.26554002 209.44365484 -73.4765625 205.49609375 C-73.8973913 195.16316305 -73.8973913 195.16316305 -71.08837891 191.51953125 C-67.04333753 187.79162111 -62.19599357 185.47601624 -57.29296875 183.08203125 C-55.78539965 182.28716094 -54.27889855 181.49026195 -52.7734375 180.69140625 C-41.73873058 175.01042468 -30.33118063 171.03800716 -18.29296875 168.08203125 C-17.57383301 167.90414062 -16.85469727 167.72625 -16.11376953 167.54296875 C-1.91208671 164.2115058 13.20598762 164.10771701 27.70703125 165.08203125 C30.75186533 168.12686533 29.01185325 177.34424337 29.02645874 181.7199707 C29.02472549 192.59467266 28.33744353 203.28960855 27.01953125 214.08203125 C26.87104736 215.36021729 26.72256348 216.63840332 26.56958008 217.95532227 C23.20629688 243.22846303 9.95867526 266.5371594 -10.18359375 282.3515625 C-32.66516944 298.60363753 -59.12291434 306.13698519 -86.76953125 306.28515625 C-88.0892392 306.2957457 -88.0892392 306.2957457 -89.43560791 306.30654907 C-129.57393112 306.55542984 -168.35194461 303.78616813 -198.98046875 274.89453125 C-220.66144721 252.40129711 -225.42775152 220.17581641 -225.45410156 190.0612793 C-225.45874116 188.67517468 -225.46376731 187.28907131 -225.46914673 185.90296936 C-225.48216894 182.1626018 -225.48869643 178.4222521 -225.49315739 174.68186545 C-225.49610663 172.33349422 -225.50021489 169.98512765 -225.50466156 167.6367588 C-225.51831404 160.25615296 -225.52798984 152.87555805 -225.53186345 145.49494046 C-225.53632905 137.0376544 -225.55381645 128.58053116 -225.58286405 120.12329453 C-225.60465225 113.54617044 -225.61457688 106.96909155 -225.61590457 100.39193183 C-225.61694109 96.48286473 -225.62259664 92.5739511 -225.64072418 88.66492271 C-225.77563255 57.78112068 -225.64315038 25.56183176 -202.6015625 2.2109375 C-152.66378506 -46.16674433 -51.16212674 -46.27353894 0 0 Z " fill="#FFFFFF" transform="translate(988.29296875,754.91796875)"/>
<path d="M0 0 C1.07060669 0.26987228 2.14121338 0.53974457 3.2442627 0.8177948 C4.05504272 1.02334488 4.86582275 1.22889496 5.70117188 1.44067383 C9.29319858 22.14982234 12.78733148 42.87509368 16.25046539 63.60614014 C16.9642135 67.87870729 17.6786742 72.15115511 18.39324951 76.42358398 C18.88001875 79.3342262 19.36676964 82.24487148 19.85351562 85.15551758 C20.03588264 86.2460078 20.03588264 86.2460078 20.22193384 87.35852814 C21.59323125 95.55890416 22.96307648 103.75951867 24.32958984 111.96069336 C25.43343168 118.58534474 26.54017132 125.20950517 27.65011489 131.83313704 C28.23129788 135.30205076 28.81112889 138.77117649 29.38733292 142.24092102 C31.84712472 157.04816635 34.42375859 171.79018888 37.70117188 186.44067383 C39.65376116 184.48808455 39.23983525 180.85373569 39.47387695 178.17675781 C39.54563581 177.39372599 39.61739468 176.61069416 39.69132805 175.8039341 C39.93537502 173.11947801 40.17203156 170.43442739 40.40820312 167.74926758 C40.58248542 165.80073379 40.7567872 163.85220174 40.93110657 161.90367126 C43.74312597 130.21996505 46.21964974 98.50604643 48.76647949 66.8001709 C49.44554696 58.34695537 50.12593375 49.89385063 50.81040221 41.4410705 C51.15888032 37.13574601 51.50463697 32.83021476 51.84824598 28.52449906 C52.11027399 25.25035553 52.37611886 21.97652149 52.64135742 18.70263672 C52.73433609 17.52738937 52.82731476 16.35214203 52.92311096 15.14128113 C53.05533554 13.5224855 53.05533554 13.5224855 53.19023132 11.87098694 C53.26523204 10.9372075 53.34023275 10.00342806 53.41750622 9.04135227 C53.69876034 6.46278309 54.15224016 3.97455644 54.70117188 1.44067383 C57.07390416 0.80589091 59.44888111 0.18298137 61.82617188 -0.43432617 C62.79490234 -0.69536133 62.79490234 -0.69536133 63.78320312 -0.96166992 C76.09935577 -4.1286806 88.47970944 -4.96327973 101.13867188 -4.93432617 C101.87397125 -4.93511169 102.60927063 -4.93589722 103.36685181 -4.93670654 C118.95221751 -4.916884 133.71272888 -2.906077 148.70117188 1.44067383 C145.08212298 28.78041054 141.40031938 56.11167213 137.70117188 83.44067383 C137.60291044 84.16671027 137.50464901 84.89274672 137.40340996 85.64078426 C134.50254612 107.0736682 131.5908239 128.50504921 128.66218376 149.93415642 C127.4394076 158.88214147 126.2192609 167.8304656 125.00628662 176.77978516 C115.90861358 243.87610475 115.90861358 243.87610475 111.84179688 266.77270508 C111.7137542 267.50765387 111.58571152 268.24260265 111.45378876 268.99982262 C110.13764612 276.46164382 108.44026393 283.74954461 106.20800781 290.99023438 C106.00899998 291.63575414 105.80999214 292.2812739 105.60495377 292.94635487 C100.12164213 309.98342821 89.44089351 322.2494216 73.70117188 330.44067383 C43.90651303 344.1107633 6.82704128 340.5945877 -25.11303711 340.50933838 C-30.19628639 340.49710156 -35.27954831 340.49268267 -40.36280823 340.48688507 C-48.00817354 340.47732424 -55.65345853 340.45811132 -63.29882812 340.44067383 C-63.29882812 324.27067383 -63.29882812 308.10067383 -63.29882812 291.44067383 C-55.70882812 291.11067383 -48.11882813 290.78067383 -40.29882812 290.44067383 C-32.12245809 289.13212208 -32.12245809 289.13212208 -28.73632812 286.87817383 C-24.88167061 280.34201543 -28.01827753 271.01668841 -29.63085938 264.08911133 C-29.88979477 262.94085373 -30.14873016 261.79259613 -30.41551208 260.60954285 C-30.99392536 258.0516615 -31.57590469 255.49489716 -32.16394043 252.9392395 C-33.14450305 248.67745272 -34.11136367 244.41261692 -35.07714844 240.14746094 C-36.58928791 233.47642496 -38.10867682 226.80706715 -39.63134766 220.13842773 C-42.36703654 208.15447351 -45.08482764 196.16647816 -47.80145264 184.17819023 C-49.21803505 177.92698266 -50.63513301 171.67589197 -52.05224609 165.42480469 C-52.33898571 164.15993634 -52.62572533 162.895068 -52.92115402 161.59187031 C-56.12911349 147.44193036 -59.34047584 133.29276336 -62.55273438 119.14379883 C-62.8389566 117.88298933 -63.12517883 116.62217983 -63.42007446 115.32316399 C-66.64791655 101.10505342 -69.87877503 86.88763653 -73.11598015 72.6716547 C-74.94808408 64.625682 -76.77756757 56.57911685 -78.60486031 48.53205013 C-79.84179226 43.08572758 -81.0824087 37.64026265 -82.32592678 32.19544029 C-83.07735176 28.90121986 -83.82523946 25.60620438 -84.57205391 22.31093597 C-84.91375504 20.80655566 -85.25693689 19.30251077 -85.60172844 17.79883575 C-86.06616679 15.77252795 -86.52533229 13.74509639 -86.9831543 11.71728516 C-87.36729744 10.03062492 -87.36729744 10.03062492 -87.75920105 8.30989075 C-88.29882812 5.44067383 -88.29882812 5.44067383 -88.29882812 1.44067383 C-59.20499907 -5.97681229 -29.30200258 -7.40455281 0 0 Z " fill="#FFFFFF" transform="translate(702.298828125,393.559326171875)"/>
</svg>
