<svg width="18" height="20" viewBox="0 0 18 20" fill="none" xmlns="http://www.w3.org/2000/svg">
<path fill-rule="evenodd" clip-rule="evenodd" d="M0.585786 0.585786C0 1.17157 0 2.11438 0 4V14C0 16.8284 0 18.2426 0.87868 19.1213C1.51998 19.7626 2.44655 19.9359 4 19.9827V17C4 16.4477 4.44772 16 5 16C5.55228 16 6 16.4477 6 17L6 20H12V17C12 16.4477 12.4477 16 13 16C13.5523 16 14 16.4477 14 17L14 19.9827C15.5534 19.9359 16.48 19.7626 17.1213 19.1213C18 18.2426 18 16.8284 18 14V4C18 2.11438 18 1.17157 17.4142 0.585786C16.8284 0 15.8856 0 14 0H4C2.11438 0 1.17157 0 0.585786 0.585786ZM5 6C4.44772 6 4 6.44772 4 7C4 7.55228 4.44772 8 5 8H13C13.5523 8 14 7.55228 14 7C14 6.44772 13.5523 6 13 6H5ZM5 12L13 12C13.5523 12 14 11.5523 14 11C14 10.4477 13.5523 10 13 10L5 10C4.44772 10 4 10.4477 4 11C4 11.5523 4.44772 12 5 12Z" fill="white"/>
</svg>
